<svg width="866" height="168" viewBox="0 0 866 168" fill="none" xmlns="http://www.w3.org/2000/svg">
<rect x="392.35" y="4.35" width="473.3" height="82.3" fill="white" fill-opacity="0.6" stroke="black" stroke-width="0.7"/>
<path d="M826 67L803.483 28L848.517 28L826 67Z" fill="black"/>
<path d="M44.8086 67H41.3564L10.5947 23.8994H10.2529V67H6.73242V17.5078H10.1846L40.9463 60.6426H41.2539V17.5078H44.8086V67ZM77.4775 67.752C74.4014 67.752 71.6442 66.9316 69.2061 65.291C66.7679 63.6276 64.8538 61.349 63.4639 58.4551C62.0967 55.5612 61.4131 52.2686 61.4131 48.5771C61.4131 44.8857 62.0967 41.5817 63.4639 38.665C64.8538 35.7256 66.7679 33.4355 69.2061 31.7949C71.6442 30.1543 74.4014 29.334 77.4775 29.334C80.5537 29.334 83.3109 30.1543 85.749 31.7949C88.1872 33.4355 90.0898 35.7256 91.457 38.665C92.8242 41.5817 93.5078 44.8857 93.5078 48.5771C93.5078 52.2686 92.8242 55.5612 91.457 58.4551C90.0898 61.349 88.1872 63.6276 85.749 65.291C83.3109 66.9316 80.5537 67.752 77.4775 67.752ZM77.4775 64.6416C79.984 64.6416 82.1943 63.9352 84.1084 62.5225C86.0225 61.0869 87.4922 59.1501 88.5176 56.7119C89.543 54.251 90.0557 51.5394 90.0557 48.5771C90.0557 45.5921 89.543 42.8805 88.5176 40.4424C87.4922 38.0042 86.0225 36.0674 84.1084 34.6318C82.1943 33.1963 79.984 32.4785 77.4775 32.4785C74.971 32.4785 72.7607 33.1963 70.8467 34.6318C68.9326 36.0674 67.4629 38.0042 66.4375 40.4424C65.4121 42.8805 64.888 45.5921 64.8652 48.5771C64.888 51.5394 65.4121 54.251 66.4375 56.7119C67.4629 59.1501 68.9326 61.0869 70.8467 62.5225C72.7607 63.9352 74.971 64.6416 77.4775 64.6416ZM104.917 29.8809H108.54L117.837 61.9414H118.076L127.407 29.8809H130.996L140.259 61.9072H140.566L149.863 29.8809H153.452L142.344 67H138.618L129.355 35.3496H128.979L119.785 67H116.025L104.917 29.8809ZM191.378 29.8809H194.693V37.7764H195.104C195.24 37.4801 195.366 37.2067 195.479 36.9561C196.163 35.4749 197.006 34.1761 198.009 33.0596C199.011 31.943 200.253 31.043 201.734 30.3594C203.238 29.6758 204.959 29.334 206.896 29.334C209.858 29.334 212.467 30.1429 214.723 31.7607C217.001 33.3558 218.756 35.623 219.986 38.5625C221.24 41.4792 221.866 44.806 221.866 48.543C221.866 52.2799 221.24 55.6068 219.986 58.5234C218.756 61.4173 217.001 63.6846 214.723 65.3252C212.467 66.943 209.869 67.752 206.93 67.752C204.97 67.752 203.215 67.3874 201.666 66.6582C200.139 65.9062 198.863 64.9606 197.838 63.8213C196.812 62.6592 195.969 61.292 195.309 59.7197L195.104 59.2754H194.796V80.9453H191.378V29.8809ZM194.728 48.4746C194.75 51.5964 195.24 54.3763 196.197 56.8145C197.154 59.2298 198.51 61.1325 200.265 62.5225C202.042 63.9124 204.138 64.6074 206.554 64.6074C209.015 64.6074 211.134 63.901 212.911 62.4883C214.711 61.0755 216.078 59.1615 217.013 56.7461C217.947 54.3079 218.414 51.5508 218.414 48.4746C218.414 45.444 217.947 42.721 217.013 40.3057C216.101 37.8675 214.745 35.9648 212.945 34.5977C211.145 33.2077 209.015 32.5127 206.554 32.5127C204.116 32.5127 202.008 33.1849 200.23 34.5293C198.453 35.8737 197.097 37.765 196.163 40.2031C195.229 42.6185 194.75 45.3757 194.728 48.4746ZM237.479 29.8809H240.795V35.6572H241.103C241.9 33.766 243.244 32.2507 245.136 31.1113C247.027 29.9492 249.169 29.3568 251.562 29.334C252.496 29.3796 253.088 29.4023 253.339 29.4023V32.8545C253.065 32.8317 252.758 32.7975 252.416 32.752C252.074 32.7064 251.721 32.6836 251.356 32.6836C249.374 32.6836 247.585 33.1165 245.99 33.9824C244.418 34.8483 243.176 36.0446 242.265 37.5713C241.353 39.098 240.897 40.8184 240.897 42.7324V67H237.479V29.8809ZM280.197 67.752C276.848 67.752 273.92 66.943 271.413 65.3252C268.907 63.6846 266.958 61.4173 265.568 58.5234C264.178 55.6296 263.483 52.3369 263.483 48.6455C263.483 44.9541 264.167 41.6387 265.534 38.6992C266.924 35.7598 268.827 33.4697 271.242 31.8291C273.68 30.1657 276.426 29.334 279.479 29.334C282.305 29.334 284.903 30.0518 287.272 31.4873C289.642 32.9229 291.522 35.0078 292.912 37.7422C294.325 40.4766 295.031 43.6781 295.031 47.3467V49.2607H265.739V46.2529H291.579C291.579 43.7008 291.055 41.3766 290.007 39.2803C288.959 37.1839 287.512 35.5319 285.666 34.3242C283.82 33.0938 281.758 32.4785 279.479 32.4785C277.132 32.4785 275.002 33.1393 273.088 34.4609C271.174 35.7598 269.67 37.5599 268.576 39.8613C267.505 42.14 266.958 44.6237 266.936 47.3125V48.9189C266.936 51.9723 267.471 54.6839 268.542 57.0537C269.636 59.4007 271.174 61.2578 273.156 62.625C275.139 63.9694 277.486 64.6416 280.197 64.6416C281.997 64.6416 283.592 64.3454 284.982 63.7529C286.372 63.1377 287.512 62.4085 288.4 61.5654C289.289 60.6995 289.973 59.8109 290.451 58.8994H294.177C293.63 60.4945 292.718 61.9642 291.442 63.3086C290.166 64.653 288.56 65.7354 286.623 66.5557C284.709 67.3532 282.567 67.752 280.197 67.752ZM331.289 38.5967C330.833 36.6826 329.842 35.1787 328.315 34.085C326.812 32.9684 324.875 32.3988 322.505 32.376C320.75 32.376 319.189 32.6836 317.822 33.2988C316.478 33.8913 315.418 34.7344 314.644 35.8281C313.869 36.8991 313.481 38.1068 313.481 39.4512C313.481 41.0918 314.062 42.4704 315.225 43.5869C316.387 44.7035 318.141 45.5579 320.488 46.1504L326.196 47.5518C329.136 48.2809 331.369 49.4658 332.896 51.1064C334.422 52.7471 335.186 54.7751 335.186 57.1904C335.163 59.2412 334.616 61.0755 333.545 62.6934C332.474 64.2884 330.924 65.5303 328.896 66.4189C326.891 67.3076 324.544 67.752 321.855 67.752C319.395 67.752 317.23 67.3646 315.361 66.5898C313.516 65.8151 312.023 64.6986 310.884 63.2402C309.744 61.7591 309.015 59.9704 308.696 57.874H312.319C312.707 60.0843 313.709 61.7705 315.327 62.9326C316.945 64.0947 319.098 64.6758 321.787 64.6758C323.77 64.6758 325.513 64.3796 327.017 63.7871C328.521 63.1719 329.671 62.3174 330.469 61.2236C331.266 60.1299 331.665 58.8424 331.665 57.3613C331.665 55.6979 331.107 54.3079 329.99 53.1914C328.874 52.0521 327.199 51.209 324.966 50.6621L319.258 49.2266C316.25 48.5202 313.96 47.3467 312.388 45.7061C310.815 44.0426 310.029 42.0146 310.029 39.6221C310.029 37.6169 310.553 35.8395 311.602 34.29C312.673 32.7178 314.154 31.4987 316.045 30.6328C317.936 29.7669 320.09 29.334 322.505 29.334C324.738 29.334 326.732 29.7214 328.486 30.4961C330.241 31.2708 331.642 32.3646 332.69 33.7773C333.761 35.1673 334.434 36.7738 334.707 38.5967H331.289ZM371.443 38.5967C370.988 36.6826 369.996 35.1787 368.47 34.085C366.966 32.9684 365.029 32.3988 362.659 32.376C360.905 32.376 359.344 32.6836 357.977 33.2988C356.632 33.8913 355.573 34.7344 354.798 35.8281C354.023 36.8991 353.636 38.1068 353.636 39.4512C353.636 41.0918 354.217 42.4704 355.379 43.5869C356.541 44.7035 358.296 45.5579 360.643 46.1504L366.351 47.5518C369.29 48.2809 371.523 49.4658 373.05 51.1064C374.576 52.7471 375.34 54.7751 375.34 57.1904C375.317 59.2412 374.77 61.0755 373.699 62.6934C372.628 64.2884 371.079 65.5303 369.051 66.4189C367.046 67.3076 364.699 67.752 362.01 67.752C359.549 67.752 357.384 67.3646 355.516 66.5898C353.67 65.8151 352.177 64.6986 351.038 63.2402C349.899 61.7591 349.17 59.9704 348.851 57.874H352.474C352.861 60.0843 353.864 61.7705 355.481 62.9326C357.099 64.0947 359.253 64.6758 361.941 64.6758C363.924 64.6758 365.667 64.3796 367.171 63.7871C368.675 63.1719 369.826 62.3174 370.623 61.2236C371.421 60.1299 371.819 58.8424 371.819 57.3613C371.819 55.6979 371.261 54.3079 370.145 53.1914C369.028 52.0521 367.353 51.209 365.12 50.6621L359.412 49.2266C356.404 48.5202 354.114 47.3467 352.542 45.7061C350.97 44.0426 350.184 42.0146 350.184 39.6221C350.184 37.6169 350.708 35.8395 351.756 34.29C352.827 32.7178 354.308 31.4987 356.199 30.6328C358.09 29.7669 360.244 29.334 362.659 29.334C364.892 29.334 366.886 29.7214 368.641 30.4961C370.395 31.2708 371.797 32.3646 372.845 33.7773C373.916 35.1673 374.588 36.7738 374.861 38.5967H371.443ZM88.7158 116.923H71.9678V113.881H88.7158V116.923ZM80.9229 104.994V141.908C80.9229 143.367 81.1963 144.563 81.7432 145.497C82.29 146.431 83.0192 147.126 83.9307 147.582C84.8421 148.038 85.8447 148.266 86.9385 148.266C87.3031 148.266 87.6221 148.266 87.8955 148.266C88.1917 148.243 88.5221 148.231 88.8867 148.231L89.6387 148.197V151.444C88.7728 151.535 87.793 151.581 86.6992 151.581C85.0814 151.581 83.5661 151.228 82.1533 150.521C80.7633 149.815 79.6354 148.778 78.7695 147.411C77.9036 146.044 77.4707 144.426 77.4707 142.558V104.994H80.9229ZM118.514 151.752C115.438 151.752 112.68 150.932 110.242 149.291C107.804 147.628 105.89 145.349 104.5 142.455C103.133 139.561 102.449 136.269 102.449 132.577C102.449 128.886 103.133 125.582 104.5 122.665C105.89 119.726 107.804 117.436 110.242 115.795C112.68 114.154 115.438 113.334 118.514 113.334C121.59 113.334 124.347 114.154 126.785 115.795C129.223 117.436 131.126 119.726 132.493 122.665C133.86 125.582 134.544 128.886 134.544 132.577C134.544 136.269 133.86 139.561 132.493 142.455C131.126 145.349 129.223 147.628 126.785 149.291C124.347 150.932 121.59 151.752 118.514 151.752ZM118.514 148.642C121.02 148.642 123.23 147.935 125.145 146.522C127.059 145.087 128.528 143.15 129.554 140.712C130.579 138.251 131.092 135.539 131.092 132.577C131.092 129.592 130.579 126.881 129.554 124.442C128.528 122.004 127.059 120.067 125.145 118.632C123.23 117.196 121.02 116.479 118.514 116.479C116.007 116.479 113.797 117.196 111.883 118.632C109.969 120.067 108.499 122.004 107.474 124.442C106.448 126.881 105.924 129.592 105.901 132.577C105.924 135.539 106.448 138.251 107.474 140.712C108.499 143.15 109.969 145.087 111.883 146.522C113.797 147.935 116.007 148.642 118.514 148.642ZM194.071 122.597C193.616 120.683 192.624 119.179 191.098 118.085C189.594 116.968 187.657 116.399 185.287 116.376C183.533 116.376 181.972 116.684 180.604 117.299C179.26 117.891 178.201 118.734 177.426 119.828C176.651 120.899 176.264 122.107 176.264 123.451C176.264 125.092 176.845 126.47 178.007 127.587C179.169 128.703 180.924 129.558 183.271 130.15L188.979 131.552C191.918 132.281 194.151 133.466 195.678 135.106C197.204 136.747 197.968 138.775 197.968 141.19C197.945 143.241 197.398 145.076 196.327 146.693C195.256 148.288 193.707 149.53 191.679 150.419C189.674 151.308 187.326 151.752 184.638 151.752C182.177 151.752 180.012 151.365 178.144 150.59C176.298 149.815 174.805 148.699 173.666 147.24C172.527 145.759 171.798 143.97 171.479 141.874H175.102C175.489 144.084 176.492 145.771 178.109 146.933C179.727 148.095 181.881 148.676 184.569 148.676C186.552 148.676 188.295 148.38 189.799 147.787C191.303 147.172 192.453 146.317 193.251 145.224C194.049 144.13 194.447 142.842 194.447 141.361C194.447 139.698 193.889 138.308 192.772 137.191C191.656 136.052 189.981 135.209 187.748 134.662L182.04 133.227C179.032 132.52 176.742 131.347 175.17 129.706C173.598 128.043 172.812 126.015 172.812 123.622C172.812 121.617 173.336 119.84 174.384 118.29C175.455 116.718 176.936 115.499 178.827 114.633C180.718 113.767 182.872 113.334 185.287 113.334C187.52 113.334 189.514 113.721 191.269 114.496C193.023 115.271 194.424 116.365 195.473 117.777C196.544 119.167 197.216 120.774 197.489 122.597H194.071ZM227.253 116.923H210.505V113.881H227.253V116.923ZM219.46 104.994V141.908C219.46 143.367 219.733 144.563 220.28 145.497C220.827 146.431 221.556 147.126 222.468 147.582C223.379 148.038 224.382 148.266 225.476 148.266C225.84 148.266 226.159 148.266 226.433 148.266C226.729 148.243 227.059 148.231 227.424 148.231L228.176 148.197V151.444C227.31 151.535 226.33 151.581 225.236 151.581C223.618 151.581 222.103 151.228 220.69 150.521C219.3 149.815 218.173 148.778 217.307 147.411C216.441 146.044 216.008 144.426 216.008 142.558V104.994H219.46ZM266.04 131.894C265.311 131.939 264.616 131.996 263.955 132.064C263.294 132.11 262.406 132.178 261.289 132.27C259.398 132.406 257.507 132.543 255.615 132.68C251.901 132.953 249.201 133.796 247.515 135.209C245.828 136.622 244.985 138.502 244.985 140.849C244.985 142.444 245.373 143.834 246.147 145.019C246.945 146.203 248.005 147.115 249.326 147.753C250.648 148.368 252.163 148.676 253.872 148.676C256.128 148.676 258.133 148.129 259.888 147.035C261.665 145.941 263.044 144.449 264.023 142.558C265.026 140.666 265.527 138.547 265.527 136.2V125.058C265.527 123.303 265.14 121.776 264.365 120.478C263.613 119.156 262.508 118.153 261.05 117.47C259.614 116.786 257.905 116.444 255.923 116.444C253.371 116.444 251.206 116.991 249.429 118.085C247.674 119.179 246.569 120.683 246.113 122.597H242.524C242.798 120.751 243.55 119.122 244.78 117.709C246.034 116.296 247.629 115.214 249.565 114.462C251.502 113.71 253.656 113.334 256.025 113.334C258.327 113.334 260.446 113.744 262.383 114.564C264.342 115.385 265.926 116.695 267.134 118.495C268.341 120.295 268.945 122.562 268.945 125.297V151H265.527V144.54H265.288C264.285 146.659 262.759 148.402 260.708 149.77C258.68 151.137 256.253 151.82 253.428 151.82C251.217 151.82 249.212 151.387 247.412 150.521C245.612 149.633 244.176 148.357 243.105 146.693C242.057 145.007 241.533 143.025 241.533 140.746C241.533 137.419 242.65 134.844 244.883 133.021C247.139 131.176 250.5 130.082 254.966 129.74C256.128 129.626 257.45 129.524 258.931 129.433C260.435 129.319 261.893 129.216 263.306 129.125C264.536 129.034 265.436 128.988 266.006 128.988L266.04 131.894ZM286.678 113.881H289.993V119.657H290.301C291.098 117.766 292.443 116.251 294.334 115.111C296.225 113.949 298.367 113.357 300.76 113.334C301.694 113.38 302.286 113.402 302.537 113.402V116.854C302.264 116.832 301.956 116.798 301.614 116.752C301.272 116.706 300.919 116.684 300.555 116.684C298.572 116.684 296.784 117.117 295.188 117.982C293.616 118.848 292.374 120.045 291.463 121.571C290.551 123.098 290.096 124.818 290.096 126.732V151H286.678V113.881ZM331.925 116.923H315.177V113.881H331.925V116.923ZM324.132 104.994V141.908C324.132 143.367 324.405 144.563 324.952 145.497C325.499 146.431 326.228 147.126 327.14 147.582C328.051 148.038 329.054 148.266 330.147 148.266C330.512 148.266 330.831 148.266 331.104 148.266C331.401 148.243 331.731 148.231 332.096 148.231L332.848 148.197V151.444C331.982 151.535 331.002 151.581 329.908 151.581C328.29 151.581 326.775 151.228 325.362 150.521C323.972 149.815 322.844 148.778 321.979 147.411C321.113 146.044 320.68 144.426 320.68 142.558V104.994H324.132ZM380.515 151H370.261V101.508H380.515V151ZM430.178 151H421.291L399.553 119.555H399.177V151H388.923V101.508H397.946L419.514 132.919H419.958V101.508H430.178V151ZM479.875 151H470.988L449.25 119.555H448.874V151H438.62V101.508H447.644L469.211 132.919H469.655V101.508H479.875V151ZM488.317 101.508H521.54V109.984H498.571V122.016H519.797V130.458H498.571V142.523H521.608V151H488.317V101.508ZM529.538 101.508H548.884C552.598 101.508 555.788 102.169 558.454 103.49C561.12 104.789 563.148 106.658 564.538 109.096C565.928 111.534 566.623 114.382 566.623 117.641C566.623 120.899 565.917 123.713 564.504 126.083C563.114 128.453 561.063 130.276 558.352 131.552C555.663 132.805 552.427 133.432 548.645 133.432H535.554V125.058H547.038C549.043 125.058 550.718 124.784 552.062 124.237C553.407 123.668 554.41 122.847 555.07 121.776C555.731 120.683 556.062 119.304 556.062 117.641C556.062 115.977 555.731 114.564 555.07 113.402C554.41 112.24 553.396 111.374 552.028 110.805C550.684 110.235 549.009 109.95 547.004 109.95H539.792V151H529.538V101.508ZM568.4 151H556.984L544.987 128.51H556.096L568.4 151ZM593.078 139.242H593.557L605.622 101.508H617.038L599.914 151H586.721L569.631 101.508H581.013L593.078 139.242ZM632.897 151H622.644V101.508H632.897V151ZM641.306 101.508H674.528V109.984H651.56V122.016H672.785V130.458H651.56V142.523H674.597V151H641.306V101.508ZM679.45 101.508H690.627L698.933 136.098H699.377L708.435 101.508H718.142L727.233 136.2H727.644L735.949 101.508H747.126L733.01 151H722.927L713.493 118.324H713.117L703.649 151H693.601L679.45 101.508Z" fill="white"/>
<path d="M418.598 67H413.949V29.8809H418.461V35.7256H418.837C419.748 33.7432 421.138 32.1937 423.007 31.0771C424.875 29.9606 427.143 29.4023 429.809 29.4023C432.338 29.4023 434.537 29.9264 436.405 30.9746C438.297 32 439.755 33.5381 440.78 35.5889C441.828 37.6396 442.353 40.1234 442.353 43.04V67H437.704V43.3135C437.704 41.3538 437.328 39.6449 436.576 38.1865C435.847 36.7054 434.787 35.5775 433.397 34.8027C432.007 34.0052 430.378 33.6064 428.51 33.6064C426.596 33.6064 424.887 34.028 423.383 34.8711C421.879 35.6914 420.705 36.8877 419.862 38.46C419.019 40.0322 418.598 41.8665 418.598 43.9629V67ZM470.975 67.752C467.557 67.752 464.56 66.9544 461.985 65.3594C459.433 63.7643 457.451 61.5199 456.038 58.626C454.648 55.7321 453.953 52.4167 453.953 48.6797C453.953 44.9655 454.648 41.6387 456.038 38.6992C457.428 35.7598 459.365 33.4697 461.849 31.8291C464.332 30.1885 467.169 29.3682 470.359 29.3682C473.185 29.3682 475.794 30.0404 478.187 31.3848C480.579 32.7064 482.493 34.7458 483.929 37.5029C485.387 40.2601 486.116 43.6439 486.116 47.6543V49.8418H457.132V45.8086H481.434C481.434 43.5299 480.966 41.4564 480.032 39.5879C479.098 37.6966 477.788 36.2155 476.102 35.1445C474.415 34.0736 472.501 33.5381 470.359 33.5381C468.081 33.5381 466.053 34.1419 464.275 35.3496C462.498 36.5345 461.108 38.1523 460.105 40.2031C459.126 42.2311 458.636 44.43 458.636 46.7998V49.2607C458.636 52.1546 459.148 54.6839 460.174 56.8486C461.199 58.9906 462.635 60.654 464.48 61.8389C466.326 63.001 468.491 63.582 470.975 63.582C472.592 63.582 474.028 63.3428 475.281 62.8643C476.557 62.363 477.605 61.7477 478.426 61.0186C479.269 60.2666 479.941 59.4577 480.442 58.5918H485.433C484.863 60.3464 483.917 61.9186 482.596 63.3086C481.274 64.6758 479.611 65.7581 477.605 66.5557C475.623 67.3532 473.413 67.752 470.975 67.752ZM509.235 45.5693L518.635 29.8809H524.035L512.106 48.4062L524.035 67H518.703L509.235 51.8584L499.87 67H494.504L506.228 48.4062L494.504 29.8809H499.87L509.235 45.5693ZM550.162 33.8457H532.149V29.8809H550.162V33.8457ZM542.369 20.9941V57.1221C542.369 58.5804 542.608 59.7539 543.087 60.6426C543.588 61.5085 544.238 62.1351 545.035 62.5225C545.855 62.887 546.79 63.0693 547.838 63.0693C548.225 63.0693 548.601 63.0579 548.966 63.0352C549.33 63.0124 549.706 63.001 550.094 63.001L550.914 62.9668V67.3076C549.866 67.4671 548.692 67.5469 547.394 67.5469C545.707 67.5469 544.124 67.1823 542.643 66.4531C541.184 65.724 539.988 64.6644 539.054 63.2744C538.142 61.8617 537.687 60.1755 537.687 58.2158V20.9941H542.369ZM583.378 17.5078H588.026V36.751H588.437C588.482 36.637 588.528 36.5345 588.573 36.4434C588.619 36.3522 588.676 36.2497 588.744 36.1357C589.405 34.8825 590.18 33.7773 591.068 32.8203C591.957 31.8405 593.108 31.0202 594.521 30.3594C595.956 29.6986 597.676 29.3682 599.682 29.3682C602.712 29.3682 605.39 30.1657 607.714 31.7607C610.061 33.333 611.872 35.5775 613.148 38.4941C614.447 41.4108 615.097 44.7604 615.097 48.543C615.097 52.3483 614.447 55.7093 613.148 58.626C611.872 61.5199 610.061 63.7643 607.714 65.3594C605.39 66.9544 602.735 67.752 599.75 67.752C597.699 67.752 595.933 67.3988 594.452 66.6924C592.994 65.986 591.809 65.1315 590.897 64.1289C590.009 63.1263 589.245 61.9642 588.607 60.6426C588.562 60.5742 588.528 60.5286 588.505 60.5059C588.482 60.4603 588.459 60.3919 588.437 60.3008H587.89V67H583.378V17.5078ZM587.924 48.4404C587.947 51.4027 588.391 54.0231 589.257 56.3018C590.146 58.5576 591.433 60.335 593.119 61.6338C594.805 62.9098 596.799 63.5479 599.101 63.5479C601.47 63.5479 603.51 62.887 605.219 61.5654C606.928 60.2438 608.215 58.4437 609.081 56.165C609.947 53.8864 610.391 51.3115 610.414 48.4404C610.391 45.5921 609.947 43.0514 609.081 40.8184C608.238 38.5625 606.962 36.7965 605.253 35.5205C603.544 34.2217 601.493 33.5723 599.101 33.5723C596.776 33.5723 594.783 34.1989 593.119 35.4521C591.456 36.7054 590.18 38.46 589.291 40.7158C588.402 42.9489 587.947 45.5238 587.924 48.4404ZM650.384 29.8809H654.964V67H650.384V60.8135H650.008C649.096 62.8187 647.684 64.4365 645.77 65.667C643.855 66.8747 641.588 67.4785 638.968 67.4785C636.552 67.4785 634.422 66.9544 632.576 65.9062C630.753 64.8353 629.329 63.2858 628.304 61.2578C627.278 59.207 626.766 56.7347 626.766 53.8408V29.8809H631.414V53.5674C631.414 55.4359 631.79 57.0765 632.542 58.4893C633.317 59.902 634.376 61.0072 635.721 61.8047C637.065 62.5794 638.603 62.9668 640.335 62.9668C642.021 62.9896 643.628 62.5908 645.154 61.7705C646.704 60.9502 647.957 59.7653 648.914 58.2158C649.894 56.6663 650.384 54.7979 650.384 52.6104V29.8809ZM683.449 33.8457H665.437V29.8809H683.449V33.8457ZM675.656 20.9941V57.1221C675.656 58.5804 675.896 59.7539 676.374 60.6426C676.875 61.5085 677.525 62.1351 678.322 62.5225C679.143 62.887 680.077 63.0693 681.125 63.0693C681.512 63.0693 681.888 63.0579 682.253 63.0352C682.618 63.0124 682.993 63.001 683.381 63.001L684.201 62.9668V67.3076C683.153 67.4671 681.979 67.5469 680.681 67.5469C678.994 67.5469 677.411 67.1823 675.93 66.4531C674.471 65.724 673.275 64.6644 672.341 63.2744C671.429 61.8617 670.974 60.1755 670.974 58.2158V20.9941H675.656ZM710.26 33.8457H692.247V29.8809H710.26V33.8457ZM702.467 20.9941V57.1221C702.467 58.5804 702.706 59.7539 703.185 60.6426C703.686 61.5085 704.335 62.1351 705.133 62.5225C705.953 62.887 706.887 63.0693 707.936 63.0693C708.323 63.0693 708.699 63.0579 709.063 63.0352C709.428 63.0124 709.804 63.001 710.191 63.001L711.012 62.9668V67.3076C709.964 67.4671 708.79 67.5469 707.491 67.5469C705.805 67.5469 704.221 67.1823 702.74 66.4531C701.282 65.724 700.086 64.6644 699.151 63.2744C698.24 61.8617 697.784 60.1755 697.784 58.2158V20.9941H702.467ZM736.353 67.752C733.14 67.752 730.28 66.943 727.773 65.3252C725.267 63.7074 723.319 61.4515 721.929 58.5576C720.539 55.6637 719.844 52.3369 719.844 48.5771C719.844 44.8174 720.539 41.4906 721.929 38.5967C723.319 35.68 725.267 33.4128 727.773 31.7949C730.28 30.1771 733.14 29.3682 736.353 29.3682C739.543 29.3682 742.38 30.1771 744.863 31.7949C747.37 33.4128 749.307 35.68 750.674 38.5967C752.064 41.4906 752.759 44.8174 752.759 48.5771C752.759 52.3369 752.064 55.6637 750.674 58.5576C749.307 61.4515 747.37 63.7074 744.863 65.3252C742.38 66.943 739.543 67.752 736.353 67.752ZM736.353 63.582C738.813 63.582 740.933 62.9212 742.71 61.5996C744.487 60.2552 745.832 58.4437 746.743 56.165C747.655 53.8864 748.11 51.3571 748.11 48.5771C748.11 45.82 747.655 43.3021 746.743 41.0234C745.832 38.7448 744.476 36.9333 742.676 35.5889C740.898 34.2217 738.791 33.5381 736.353 33.5381C733.892 33.5381 731.761 34.2217 729.961 35.5889C728.184 36.9333 726.828 38.7448 725.894 41.0234C724.982 43.3021 724.526 45.82 724.526 48.5771C724.526 51.3571 724.982 53.8864 725.894 56.165C726.828 58.4437 728.184 60.2552 729.961 61.5996C731.761 62.9212 733.892 63.582 736.353 63.582ZM769.076 67H764.428V29.8809H768.939V35.7256H769.315C770.227 33.7432 771.617 32.1937 773.485 31.0771C775.354 29.9606 777.621 29.4023 780.287 29.4023C782.816 29.4023 785.015 29.9264 786.884 30.9746C788.775 32 790.233 33.5381 791.259 35.5889C792.307 37.6396 792.831 40.1234 792.831 43.04V67H788.183V43.3135C788.183 41.3538 787.807 39.6449 787.055 38.1865C786.326 36.7054 785.266 35.5775 783.876 34.8027C782.486 34.0052 780.857 33.6064 778.988 33.6064C777.074 33.6064 775.365 34.028 773.861 34.8711C772.357 35.6914 771.184 36.8877 770.341 38.46C769.498 40.0322 769.076 41.8665 769.076 43.9629V67Z" fill="#2D2D2D"/>
</svg>
