<svg width="871" height="168" viewBox="0 0 871 168" fill="none" xmlns="http://www.w3.org/2000/svg">
<rect x="215.35" y="0.35" width="362.3" height="82.3" fill="white" fill-opacity="0.6" stroke="black" stroke-width="0.7"/>
<path d="M538 63L515.483 24L560.517 24L538 63Z" fill="black"/>
<path d="M125.914 72.1611H122.667V12.2441H125.914V72.1611ZM94.5371 17.166C97.4538 17.166 100.04 18.0091 102.296 19.6953C104.575 21.3815 106.34 23.7855 107.594 26.9072C108.847 30.0062 109.474 33.6064 109.474 37.708C109.474 41.8096 108.847 45.4098 107.594 48.5088C106.34 51.585 104.575 53.9661 102.296 55.6523C100.04 57.3385 97.4538 58.1816 94.5371 58.1816C91.6432 58.1816 89.0684 57.3385 86.8125 55.6523C84.5566 53.9661 82.7907 51.585 81.5146 48.5088C80.2386 45.4098 79.6006 41.8096 79.6006 37.708C79.6006 33.6064 80.2386 30.0062 81.5146 26.9072C82.7907 23.7855 84.5566 21.3815 86.8125 19.6953C89.0684 18.0091 91.6432 17.166 94.5371 17.166ZM94.5371 20.0029C92.2812 20.0029 90.2533 20.7663 88.4531 22.293C86.653 23.7969 85.2516 25.8932 84.249 28.582C83.2692 31.2708 82.7793 34.3128 82.7793 37.708C82.7793 41.1032 83.2692 44.1452 84.249 46.834C85.2516 49.5 86.653 51.585 88.4531 53.0889C90.2533 54.5928 92.2812 55.3447 94.5371 55.3447C96.8385 55.3447 98.8779 54.5928 100.655 53.0889C102.455 51.585 103.845 49.5 104.825 46.834C105.828 44.1452 106.329 41.1032 106.329 37.708C106.329 34.3128 105.828 31.2708 104.825 28.582C103.845 25.8932 102.455 23.7969 100.655 22.293C98.8779 20.7663 96.8385 20.0029 94.5371 20.0029ZM195.326 72.127H192.182V12.2441H195.326V72.127ZM181.381 37.2295H168.666V34.4951H181.381V37.2295ZM183.295 68.7432H180.185V13.9531H183.295V68.7432ZM160.771 29.915C160.771 34.085 160.144 38.1182 158.891 42.0146C157.637 45.9111 155.917 49.3861 153.729 52.4395C151.565 55.4928 149.092 57.874 146.312 59.583L144.193 57.1221C146.837 55.5498 149.218 53.3509 151.337 50.5254C153.456 47.6771 155.108 44.4642 156.293 40.8867C157.501 37.3092 158.104 33.652 158.104 29.915V21.1992H160.771V29.915ZM161.283 29.915C161.26 33.4469 161.83 36.8991 162.992 40.2715C164.177 43.6439 165.795 46.6859 167.846 49.3975C169.896 52.0863 172.243 54.1826 174.887 55.6865L172.768 58.2158C170.01 56.5068 167.561 54.194 165.419 51.2773C163.3 48.3607 161.636 45.0566 160.429 41.3652C159.244 37.6738 158.651 33.8571 158.651 29.915V21.1992H161.283V29.915ZM173.451 22.7373H145.424V19.9004H173.451V22.7373ZM608.114 13.4062C612.444 13.4062 616.169 13.805 619.291 14.6025C622.413 15.4001 624.783 16.585 626.4 18.1572C628.041 19.7295 628.861 21.6322 628.861 23.8652C628.861 26.1211 628.041 28.0352 626.4 29.6074C624.76 31.1569 622.379 32.3418 619.257 33.1621C616.158 33.9824 612.444 34.3926 608.114 34.3926C603.762 34.3926 600.036 33.9824 596.938 33.1621C593.839 32.3418 591.457 31.1569 589.794 29.6074C588.153 28.0352 587.333 26.1211 587.333 23.8652C587.333 21.6322 588.153 19.7295 589.794 18.1572C591.457 16.585 593.839 15.4001 596.938 14.6025C600.036 13.805 603.762 13.4062 608.114 13.4062ZM608.114 16.0381C604.582 16.0381 601.495 16.3571 598.852 16.9951C596.231 17.6104 594.203 18.5218 592.768 19.7295C591.355 20.9144 590.66 22.293 590.683 23.8652C590.66 25.4603 591.355 26.8617 592.768 28.0693C594.203 29.2542 596.231 30.1657 598.852 30.8037C601.495 31.4417 604.582 31.7607 608.114 31.7607C611.646 31.7607 614.734 31.4417 617.377 30.8037C620.02 30.1657 622.048 29.2542 623.461 28.0693C624.896 26.8844 625.614 25.4831 625.614 23.8652C625.614 22.293 624.896 20.9144 623.461 19.7295C622.048 18.5218 620.009 17.6104 617.343 16.9951C614.7 16.3571 611.623 16.0381 608.114 16.0381ZM635.39 42.0488H580.873V39.2803H635.39V42.0488ZM628.144 60.4717H591.127V69.1191H587.914V57.874H624.999V51.0039H587.743V48.3379H628.144V60.4717ZM630.126 71.2383H587.914V68.4697H630.126V71.2383ZM700.454 49.0557H697.31V38.7676H700.454V49.0557ZM719.868 31.0088H679.434V28.1377H719.868V31.0088ZM726.362 40.1348H671.572V37.332H726.362V40.1348ZM682.578 29.0947H679.434V13.3379H682.578V29.0947ZM719.048 60.0273H682.236V69.7686H679.023V57.498H715.869V50.2861H678.853V47.6201H719.048V60.0273ZM721.304 71.2383H679.023V68.4355H721.304V71.2383ZM788.118 72.1611H784.939V12.2441H788.118V72.1611ZM785.999 39.0752H771.985V36.2383H785.999V39.0752ZM745.94 54.5586C751.91 54.5586 756.946 54.4219 761.048 54.1484C765.149 53.8522 769.342 53.2826 773.626 52.4395L773.934 55.3105C769.536 56.1081 765.252 56.6663 761.082 56.9854C756.935 57.2816 751.888 57.4411 745.94 57.4639H741.565V54.5586H745.94ZM768.157 38.084H744.778V55.4814H741.565V35.1787H764.979V20.9941H741.36V18.1572H768.157V38.084ZM14.4814 151H4.22754V101.508H14.4814V151ZM64.1445 151H55.2578L33.5195 119.555H33.1436V151H22.8896V101.508H31.9131L53.4805 132.919H53.9248V101.508H64.1445V151ZM113.842 151H104.955L83.2168 119.555H82.8408V151H72.5869V101.508H81.6104L103.178 132.919H103.622V101.508H113.842V151ZM122.284 101.508H155.507V109.984H132.538V122.016H153.764V130.458H132.538V142.523H155.575V151H122.284V101.508ZM163.505 101.508H182.851C186.565 101.508 189.755 102.169 192.421 103.49C195.087 104.789 197.115 106.658 198.505 109.096C199.895 111.534 200.59 114.382 200.59 117.641C200.59 120.899 199.883 123.713 198.471 126.083C197.081 128.453 195.03 130.276 192.318 131.552C189.63 132.805 186.394 133.432 182.611 133.432H169.521V125.058H181.005C183.01 125.058 184.685 124.784 186.029 124.237C187.374 123.668 188.376 122.847 189.037 121.776C189.698 120.683 190.028 119.304 190.028 117.641C190.028 115.977 189.698 114.564 189.037 113.402C188.376 112.24 187.362 111.374 185.995 110.805C184.651 110.235 182.976 109.95 180.971 109.95H173.759V151H163.505V101.508ZM202.367 151H190.951L178.954 128.51H190.062L202.367 151ZM227.045 139.242H227.523L239.589 101.508H251.005L233.881 151H220.688L203.598 101.508H214.979L227.045 139.242ZM266.864 151H256.61V101.508H266.864V151ZM275.272 101.508H308.495V109.984H285.526V122.016H306.752V130.458H285.526V142.523H308.563V151H275.272V101.508ZM313.417 101.508H324.594L332.899 136.098H333.344L342.401 101.508H352.108L361.2 136.2H361.61L369.916 101.508H381.093L366.977 151H356.894L347.46 118.324H347.084L337.616 151H327.567L313.417 101.508ZM439.779 127.45H384.989V124.647H439.779V127.45ZM432.738 145.224H395.209V153.666H391.962V142.66H429.491V136.166H391.825V133.466H432.738V145.224ZM434.789 155.102H391.962V152.436H434.789V155.102ZM432.465 109.813H395.482V117.436H392.338V107.284H429.252V101.132H392.064V98.5342H432.465V109.813ZM433.559 119.042H392.338V116.41H433.559V119.042ZM495.444 113.983C495.444 118.017 494.59 121.981 492.881 125.878C491.195 129.752 489.007 133.215 486.318 136.269C483.652 139.299 480.872 141.601 477.979 143.173L475.825 140.507C478.514 139.14 481.157 137.055 483.755 134.252C486.375 131.426 488.506 128.236 490.146 124.682C491.81 121.104 492.642 117.538 492.642 113.983V101.815H495.444V113.983ZM495.786 113.983C495.786 117.424 496.618 120.876 498.281 124.34C499.967 127.803 502.109 130.902 504.707 133.637C507.327 136.348 509.993 138.354 512.705 139.652L510.62 142.182C507.703 140.678 504.889 138.467 502.178 135.551C499.489 132.634 497.29 129.296 495.581 125.536C493.872 121.754 493.018 117.903 493.018 113.983V101.815H495.786V113.983ZM524.702 156.161H521.455V96.2441H524.702V156.161ZM561.951 108.036C561.951 111.5 561.211 114.735 559.729 117.743C558.248 120.751 556.243 123.36 553.714 125.57C551.207 127.758 548.416 129.455 545.34 130.663L543.562 128.065C546.388 127.017 548.997 125.502 551.39 123.52C553.805 121.514 555.73 119.179 557.166 116.513C558.602 113.847 559.331 111.021 559.354 108.036V102.396H561.951V108.036ZM562.43 108.002C562.43 110.782 563.113 113.425 564.48 115.932C565.87 118.415 567.716 120.603 570.018 122.494C572.319 124.363 574.871 125.81 577.674 126.835L576.033 129.433C572.957 128.271 570.188 126.63 567.728 124.511C565.289 122.392 563.341 119.919 561.883 117.094C560.447 114.268 559.741 111.238 559.764 108.002V102.396H562.43V108.002ZM576.854 103.729H544.759V100.893H576.854V103.729ZM589.739 132.304H586.458V96.2441H589.739V132.304ZM599.275 115.761H588.851V112.924H599.275V115.761ZM589.739 156.127H586.458V138.661H551.253V135.824H589.739V156.127ZM641.412 110.155H610.685V107.387H641.412V110.155ZM626.031 115.043C628.469 115.043 630.657 115.613 632.594 116.752C634.553 117.868 636.08 119.441 637.174 121.469C638.268 123.474 638.814 125.753 638.814 128.305C638.814 130.88 638.268 133.181 637.174 135.209C636.08 137.214 634.553 138.786 632.594 139.926C630.657 141.042 628.469 141.601 626.031 141.601C623.593 141.601 621.406 141.042 619.469 139.926C617.532 138.786 616.017 137.214 614.923 135.209C613.852 133.181 613.316 130.88 613.316 128.305C613.316 125.775 613.863 123.497 614.957 121.469C616.051 119.441 617.555 117.868 619.469 116.752C621.406 115.613 623.593 115.043 626.031 115.043ZM626.031 117.948C624.163 117.948 622.488 118.415 621.007 119.35C619.526 120.261 618.364 121.503 617.521 123.075C616.7 124.647 616.29 126.391 616.29 128.305C616.29 130.219 616.7 131.962 617.521 133.534C618.364 135.106 619.526 136.36 621.007 137.294C622.488 138.205 624.163 138.661 626.031 138.661C627.877 138.661 629.54 138.205 631.021 137.294C632.525 136.36 633.699 135.106 634.542 133.534C635.408 131.962 635.841 130.219 635.841 128.305C635.841 126.391 635.408 124.647 634.542 123.075C633.699 121.503 632.525 120.261 631.021 119.35C629.54 118.415 627.877 117.948 626.031 117.948ZM661.339 156.127H658.194V96.2441H661.339V156.127ZM659.288 124.887H646.812V122.016H659.288V124.887ZM648.18 152.914H645.104V97.8164H648.18V152.914ZM627.672 108.993H624.425V98.124H627.672V108.993ZM706.723 104.721C706.723 108.116 705.526 111.215 703.134 114.018C700.741 116.82 697.745 119.145 694.145 120.99C690.544 122.836 686.944 124.135 683.344 124.887L681.942 122.221C685.064 121.697 688.323 120.603 691.718 118.939C695.136 117.276 698.007 115.202 700.331 112.719C702.678 110.235 703.852 107.569 703.852 104.721V101.61H706.723V104.721ZM707.304 104.721C707.304 107.569 708.466 110.235 710.79 112.719C713.114 115.202 715.985 117.276 719.403 118.939C722.821 120.603 726.08 121.697 729.179 122.221L727.846 124.887C724.223 124.135 720.622 122.836 717.045 120.99C713.467 119.145 710.482 116.82 708.09 114.018C705.697 111.215 704.501 108.116 704.501 104.721V101.61H707.304V104.721ZM707.133 156.024H703.988V132.577H707.133V156.024ZM732.836 133.876H678.319V131.039H732.836V133.876ZM727.436 103.183H683.651V100.414H727.436V103.183ZM782.39 121.469H769.606V118.529H782.39V121.469ZM762.258 114.599C762.258 118.427 761.62 122.175 760.344 125.844C759.068 129.49 757.325 132.771 755.114 135.688C752.904 138.604 750.432 140.883 747.697 142.523L745.441 140.028C748.062 138.57 750.443 136.496 752.585 133.808C754.75 131.096 756.447 128.065 757.678 124.716C758.931 121.366 759.558 117.994 759.558 114.599V102.191H762.258V114.599ZM762.668 114.53C762.668 117.606 763.272 120.74 764.479 123.93C765.687 127.12 767.339 130.025 769.436 132.646C771.532 135.266 773.845 137.305 776.374 138.764L774.357 141.225C771.669 139.63 769.23 137.408 767.043 134.56C764.878 131.711 763.169 128.544 761.916 125.058C760.686 121.549 760.07 118.039 760.07 114.53V102.191H762.668V114.53ZM796.813 156.127H793.566V96.2441H796.813V156.127ZM784.406 152.88H781.33V97.7139H784.406V152.88ZM830.918 146.044H827.739V127.348H830.918V146.044ZM853.579 146.044H850.332V127.348H853.579V146.044ZM868.174 147.924H813.315V145.053H868.174V147.924ZM840.557 100.585C844.749 100.608 848.464 101.234 851.699 102.465C854.958 103.695 857.487 105.45 859.287 107.729C861.11 109.984 862.021 112.593 862.021 115.556C862.021 118.518 861.11 121.127 859.287 123.383C857.487 125.616 854.958 127.348 851.699 128.578C848.464 129.809 844.749 130.424 840.557 130.424C836.364 130.424 832.65 129.809 829.414 128.578C826.178 127.348 823.649 125.616 821.826 123.383C820.003 121.127 819.092 118.518 819.092 115.556C819.092 112.593 820.003 109.984 821.826 107.729C823.649 105.45 826.178 103.695 829.414 102.465C832.65 101.234 836.364 100.608 840.557 100.585ZM840.557 103.388C837.048 103.365 833.892 103.878 831.089 104.926C828.286 105.951 826.087 107.398 824.492 109.267C822.897 111.112 822.1 113.209 822.1 115.556C822.1 117.903 822.897 119.999 824.492 121.845C826.087 123.69 828.286 125.137 831.089 126.186C833.892 127.234 837.048 127.758 840.557 127.758C844.043 127.758 847.188 127.234 849.99 126.186C852.793 125.137 854.992 123.69 856.587 121.845C858.205 119.999 859.025 117.903 859.048 115.556C859.025 113.209 858.216 111.112 856.621 109.267C855.026 107.398 852.816 105.951 849.99 104.926C847.188 103.878 844.043 103.365 840.557 103.388Z" fill="white"/>
<path d="M281.104 72.1611H277.822V12.2441H281.104V72.1611ZM291.836 39.7588H280.249V36.8535H291.836V39.7588ZM242.617 53.9434C248.678 53.9661 253.828 53.8294 258.066 53.5332C262.327 53.2142 266.691 52.6217 271.157 51.7559L271.67 54.7295C267.09 55.5498 262.658 56.1081 258.374 56.4043C254.113 56.7005 248.861 56.8372 242.617 56.8145H238.105V53.9434H242.617ZM265.962 21.0283H241.318V55.0713H238.105V18.2598H265.962V21.0283ZM326.542 13.7139C330.826 13.7139 334.517 14.1582 337.616 15.0469C340.738 15.9128 343.131 17.1774 344.794 18.8408C346.457 20.5042 347.289 22.5094 347.289 24.8564C347.289 27.1579 346.457 29.1403 344.794 30.8037C343.131 32.4443 340.738 33.6862 337.616 34.5293C334.517 35.3724 330.826 35.7939 326.542 35.7939C322.258 35.7939 318.555 35.3724 315.434 34.5293C312.312 33.6862 309.919 32.4443 308.256 30.8037C306.592 29.1403 305.761 27.1579 305.761 24.8564C305.761 22.5322 306.592 20.5384 308.256 18.875C309.919 17.1888 312.312 15.9128 315.434 15.0469C318.555 14.1582 322.258 13.7139 326.542 13.7139ZM326.542 16.4482C323.056 16.4482 319.991 16.79 317.348 17.4736C314.704 18.1572 312.665 19.137 311.229 20.4131C309.794 21.6891 309.076 23.1702 309.076 24.8564C309.076 26.4971 309.794 27.9326 311.229 29.1631C312.665 30.3936 314.704 31.3506 317.348 32.0342C319.991 32.7178 323.056 33.0596 326.542 33.0596C330.006 33.0596 333.059 32.7178 335.702 32.0342C338.345 31.3506 340.396 30.3936 341.854 29.1631C343.313 27.9326 344.042 26.4971 344.042 24.8564C344.042 23.1702 343.313 21.6891 341.854 20.4131C340.419 19.137 338.368 18.1572 335.702 17.4736C333.059 16.79 330.006 16.4482 326.542 16.4482ZM347.05 71.1699H306.239V51.9609H347.05V71.1699ZM309.452 68.3672H343.871V54.7295H309.452V68.3672ZM353.817 44.9199H299.301V42.1172H353.817V44.9199ZM432.082 72.1611H428.903V12.2441H432.082V72.1611ZM429.86 38.1182H411.403V35.2812H429.86V38.1182ZM388.947 33.2988H409.216V16.9268H412.395V56.4043H385.7V16.9268H388.947V33.2988ZM409.216 53.499V36.0332H388.947V53.499H409.216ZM501.583 48.748H447.032V45.9795H501.583V48.748ZM495.704 70.5889H454.449V67.7178H495.704V70.5889ZM457.696 68.7432H454.449V54.0459H457.696V68.7432ZM494.781 39.041H454.586V36.2725H494.781V39.041ZM494.542 17.4736H457.867V37.1953H454.586V14.6709H494.542V17.4736ZM492.799 28.1035H456.808V25.335H492.799V28.1035Z" fill="#2D2D2D"/>
</svg>
