<svg width="275" height="36" viewBox="0 0 275 36" fill="none" xmlns="http://www.w3.org/2000/svg">
<path d="M8.98633 36H0.685547V0.648438H8.98633V36ZM44.3379 36H37.2578L22.9023 15.248H22.6582V36H14.3574V0.648438H21.5352L35.7441 21.4004H36.0371V0.648438H44.3379V36ZM79.6895 36H72.6094L58.2539 15.248H58.0098V36H49.709V0.648438H56.8867L71.0957 21.4004H71.3887V0.648438H79.6895V36ZM85.0605 0.648438H109.523V7.43555H93.3613V14.9062H108.254V21.6934H93.3613V29.2129H109.572V36H85.0605V0.648438ZM114.846 0.648438H129.299C131.936 0.648438 134.214 1.12858 136.135 2.08887C138.072 3.03288 139.553 4.39193 140.578 6.16602C141.62 7.92383 142.141 9.99089 142.141 12.3672C142.157 14.776 141.636 16.8431 140.578 18.5684C139.52 20.2936 137.998 21.6038 136.013 22.499L143.41 36H134.279L127.785 23.8418H123.146V36H114.846V0.648438ZM127.541 17.2012C131.545 17.2337 133.547 15.6224 133.547 12.3672C133.547 10.707 133.034 9.46191 132.009 8.63184C131 7.80176 129.51 7.38672 127.541 7.38672H123.146V17.2012H127.541ZM161.525 26.7227H161.818L169.875 0.648438H179.152L167.189 36H156.154L144.143 0.648438H153.469L161.525 26.7227ZM191.213 36H182.912V0.648438H191.213V36ZM196.584 0.648438H221.047V7.43555H204.885V14.9062H219.777V21.6934H204.885V29.2129H221.096V36H196.584V0.648438ZM224.514 0.648438H233.693L239.113 24.0859H239.406L245.559 0.648438H253.127L259.328 24.1348H259.572L265.041 0.648438H274.221L263.967 36H255.959L249.514 14.2227H249.221L242.775 36H234.719L224.514 0.648438Z" fill="white" fill-opacity="0.5"/>
</svg>
